#tb 0: 1/25
#media_type 0: video
#codec_id 0: rawvideo
#dimensions 0: 416x240
#sar 0: 0/1
0,          0,          0,        1,   149760, 0x8edb27d7
0,          1,          1,        1,   149760, 0x0bdf13f8
0,          2,          2,        1,   149760, 0x45e702c7
0,          3,          3,        1,   149760, 0x7a3a0c9a
0,          4,          4,        1,   149760, 0xab0ed81d
0,          5,          5,        1,   149760, 0xe2d4722a
0,          6,          6,        1,   149760, 0x1df1f103
0,          7,          7,        1,   149760, 0xdde42fb8
0,          8,          8,        1,   149760, 0xfe2eb624
0,          9,          9,        1,   149760, 0x121ff262
0,         10,         10,        1,   149760, 0x64e5e7ba
0,         11,         11,        1,   149760, 0x61b40e67
0,         12,         12,        1,   149760, 0x8ceeb33f
0,         13,         13,        1,   149760, 0xcbff6fc5
0,         14,         14,        1,   149760, 0x07d6f767
0,         15,         15,        1,   149760, 0x5cff14a5
0,         16,         16,        1,   149760, 0x5c336ca3
0,         17,         17,        1,   149760, 0x424990cd
0,         18,         18,        1,   149760, 0x2c423459
0,         19,         19,        1,   149760, 0xaff700ac
0,         20,         20,        1,   149760, 0xaab9e6f4
0,         21,         21,        1,   149760, 0x7979bfd4
0,         22,         22,        1,   149760, 0x5096ee11
0,         23,         23,        1,   149760, 0x4f02d1d0
0,         24,         24,        1,   149760, 0x0c6468d2
0,         25,         25,        1,   149760, 0x707e9307
0,         26,         26,        1,   149760, 0xf4a71dc8
0,         27,         27,        1,   149760, 0xbefc67f0
0,         28,         28,        1,   149760, 0x05b8f3a9
0,         29,         29,        1,   149760, 0xcd080a46
0,         30,         30,        1,   149760, 0x1b5ab043
0,         31,         31,        1,   149760, 0xd4b896e2
0,         32,         32,        1,   149760, 0xbd342d08
0,         33,         33,        1,   149760, 0x0b993f3c
0,         34,         34,        1,   149760, 0xd89190e2
0,         35,         35,        1,   149760, 0x507f2663
0,         36,         36,        1,   149760, 0x6994c08f
0,         37,         37,        1,   149760, 0xcf0209b2
0,         38,         38,        1,   149760, 0x9695327c
0,         39,         39,        1,   149760, 0x7116fdb3
0,         40,         40,        1,   149760, 0x1294b154
0,         41,         41,        1,   149760, 0x7ed1f716
0,         42,         42,        1,   149760, 0xdc4880da
0,         43,         43,        1,   149760, 0xa5955d35
